<svg width="28" height="28" viewBox="0 0 28 28" fill="none" xmlns="http://www.w3.org/2000/svg">
<path d="M14 0.133301C13.4112 0.133301 12.9334 0.611167 12.9334 1.19997V1.3833C12.9334 1.89317 12.5743 2.34807 12.0709 2.42913C11.8266 2.4686 11.5848 2.51432 11.3459 2.56872C10.8509 2.68178 10.3504 2.40157 10.1563 1.9333L10.0854 1.76663C9.86038 1.22263 9.23676 0.963417 8.6917 1.18955C8.1477 1.41462 7.88848 2.03823 8.11461 2.5833L8.18545 2.75413C8.38171 3.22347 8.22476 3.77908 7.7917 4.04788C7.58263 4.17802 7.37866 4.31435 7.1792 4.45622C6.76533 4.75168 6.19283 4.68443 5.83336 4.32497L5.7042 4.1958C5.28713 3.77873 4.61186 3.77873 4.19586 4.1958C3.77986 4.61287 3.77986 5.28813 4.19586 5.70413L4.32503 5.8333C4.6845 6.19277 4.75175 6.7642 4.45628 7.17913C4.31441 7.3786 4.17808 7.58257 4.04795 7.79163C3.77915 8.2247 3.22251 8.38267 2.75211 8.18747L2.58336 8.11663C2.03936 7.89157 1.41366 8.14972 1.18753 8.69372C0.962462 9.23772 1.22061 9.86133 1.76461 10.0875L1.93128 10.1562C2.39955 10.3504 2.68185 10.8509 2.56878 11.3458C2.51438 11.5847 2.46658 11.8265 2.42711 12.0708C2.34711 12.5732 1.89323 12.9333 1.38336 12.9333H1.20003C0.611229 12.9333 0.133362 13.4112 0.133362 14C0.133362 14.5888 0.611229 15.0666 1.20003 15.0666H1.38336C1.89323 15.0666 2.34813 15.4257 2.4292 15.9291C2.46866 16.1734 2.51438 16.4152 2.56878 16.6541C2.68185 17.1491 2.40163 17.6496 1.93336 17.8437L1.7667 17.9146C1.2227 18.1396 0.963479 18.7632 1.18961 19.3083C1.41468 19.8523 2.0383 20.1115 2.58336 19.8854L2.7542 19.8146C3.2246 19.6194 3.78016 19.7763 4.05003 20.2083C4.18016 20.4174 4.31543 20.6224 4.45836 20.8229C4.75383 21.2368 4.68658 21.8093 4.32711 22.1687L4.19586 22.2979C3.7788 22.715 3.7788 23.3902 4.19586 23.8062C4.61293 24.2222 5.2882 24.2233 5.7042 23.8062L5.83545 23.6771C6.19491 23.3176 6.76533 23.2483 7.1792 23.5437C7.37973 23.6867 7.58471 23.824 7.79378 23.9541C8.22578 24.2229 8.38481 24.7796 8.18961 25.25L8.11878 25.4187C7.89371 25.9627 8.15186 26.5884 8.69586 26.8146C9.23986 27.0396 9.86348 26.7815 10.0896 26.2375L10.1584 26.0708C10.3525 25.6025 10.853 25.3202 11.3479 25.4333C11.5869 25.4877 11.8287 25.5355 12.0729 25.575C12.5732 25.6528 12.9334 26.1068 12.9334 26.6166V26.8C12.9334 27.3888 13.4112 27.8666 14 27.8666C14.5888 27.8666 15.0667 27.3888 15.0667 26.8V26.6166C15.0667 26.1068 15.4257 25.6519 15.9292 25.5708C16.1735 25.5313 16.4153 25.4856 16.6542 25.4312C17.1491 25.3182 17.6496 25.5984 17.8438 26.0666L17.9146 26.2333C18.1397 26.7773 18.7633 27.0365 19.3084 26.8104C19.8524 26.5853 20.1116 25.9617 19.8854 25.4166L19.8146 25.2458C19.6194 24.7754 19.7764 24.2198 20.2084 23.95C20.4174 23.8198 20.6224 23.6846 20.8229 23.5416C21.2368 23.2462 21.8093 23.3134 22.1688 23.6729L22.2979 23.8041C22.715 24.2212 23.3903 24.2212 23.8063 23.8041C24.2223 23.3871 24.2233 22.7118 23.8063 22.2958L23.6771 22.1646C23.3176 21.8051 23.2483 21.2347 23.5438 20.8208C23.6867 20.6203 23.8241 20.4153 23.9542 20.2062C24.223 19.7742 24.7796 19.6152 25.25 19.8104L25.4188 19.8812C25.9628 20.1063 26.5885 19.8481 26.8146 19.3041C27.0397 18.7601 26.7815 18.1365 26.2375 17.9104L26.0709 17.8416C25.6026 17.6475 25.3203 17.147 25.4334 16.6521C25.4878 16.4131 25.5356 16.1713 25.575 15.9271C25.6529 15.4268 26.1068 15.0666 26.6167 15.0666H26.8C27.3888 15.0666 27.8667 14.5888 27.8667 14C27.8667 13.4112 27.3888 12.9333 26.8 12.9333H26.6167C26.1068 12.9333 25.6519 12.5743 25.5709 12.0708C25.5314 11.8265 25.4857 11.5847 25.4313 11.3458C25.3182 10.8509 25.5984 10.3504 26.0667 10.1562L26.2334 10.0854C26.7774 9.86032 27.0366 9.2367 26.8104 8.69164C26.5854 8.14763 25.9618 7.88842 25.4167 8.11455L25.2459 8.18538C24.7755 8.38058 24.2199 8.22363 23.95 7.79163C23.8199 7.58257 23.6846 7.37758 23.5417 7.17705C23.2462 6.76318 23.3135 6.19068 23.6729 5.83122L23.8042 5.70205C24.2213 5.28498 24.2213 4.60972 23.8042 4.19372C23.3871 3.77665 22.7119 3.77665 22.2959 4.19372L22.1667 4.32497C21.8072 4.68443 21.2347 4.75377 20.8209 4.4583C20.6203 4.31537 20.4153 4.17802 20.2063 4.04788C19.7743 3.77908 19.6173 3.22245 19.8125 2.75205L19.8834 2.5833C20.1084 2.0393 19.8503 1.4136 19.3063 1.18747C18.7623 0.962401 18.1387 1.22055 17.9125 1.76455L17.8417 1.93122C17.6476 2.39948 17.147 2.68178 16.6521 2.56872C16.4132 2.51432 16.1714 2.46652 15.9271 2.42705C15.4258 2.34705 15.0667 1.89317 15.0667 1.3833V1.19997C15.0667 0.611167 14.5888 0.133301 14 0.133301ZM14 5.46663C18.3506 5.46663 21.9345 8.72517 22.4604 12.9333H15.8438C15.6569 12.6095 15.3881 12.3406 15.0646 12.1534C14.741 11.9662 14.3739 11.8673 14 11.8666C13.9993 11.8666 13.9986 11.8666 13.9979 11.8666L10.6896 6.1333C11.7078 5.70421 12.8259 5.46663 14 5.46663ZM8.84795 7.2083L12.1542 12.9333C11.9664 13.2574 11.8672 13.6253 11.8667 14C11.8679 14.3732 11.9671 14.7395 12.1542 15.0625L8.84586 20.7896C6.79622 19.2309 5.4667 16.7734 5.4667 14C5.4667 11.2255 6.79697 8.76686 8.84795 7.2083ZM15.8459 15.0666H22.4604C21.9345 19.2748 18.3506 22.5333 14 22.5333C12.8259 22.5333 11.7078 22.2957 10.6896 21.8666L13.9979 16.1333C13.9986 16.1333 13.9993 16.1333 14 16.1333C14.3742 16.133 14.7418 16.0343 15.0657 15.8471C15.3897 15.6598 15.6588 15.3907 15.8459 15.0666Z" fill="black"/>
</svg>
