<svg width="18" height="19" viewBox="0 0 18 19" fill="none" xmlns="http://www.w3.org/2000/svg">
<path d="M13.4031 0.833008C12.3289 0.833008 11.3202 1.24955 10.5602 2.00488L9.2199 3.33822C8.46061 4.09422 8.04189 5.09767 8.04189 6.16634C8.04189 7.00919 8.30553 7.80899 8.78796 8.48145L7.68849 9.5752C7.01243 9.09551 6.20801 8.83301 5.36126 8.83301C4.287 8.83301 3.27828 9.24955 2.51833 10.0049L1.17801 11.3382C0.418723 12.0942 0 13.0977 0 14.1663C0 15.235 0.418723 16.2385 1.17801 16.9945C1.9373 17.7505 2.94668 18.1663 4.02094 18.1663C5.09521 18.1663 6.10392 17.7498 6.86388 16.9945L8.20419 15.6611C8.96348 14.9051 9.3822 13.9017 9.3822 12.833C9.3822 12.4657 9.32946 12.1074 9.2343 11.7627L8.0288 12.9619C7.99797 13.6012 7.74576 14.2311 7.25655 14.7184L5.91623 16.0518C4.87079 17.0918 3.17043 17.0918 2.12566 16.0518C1.08088 15.0118 1.08021 13.3203 2.12566 12.2809L3.46597 10.9476C3.98869 10.4276 4.67566 10.1689 5.36257 10.1689C5.83286 10.1689 6.29857 10.2991 6.71597 10.5426L4.88744 12.3617C4.82312 12.4231 4.77177 12.4967 4.7364 12.5781C4.70102 12.6595 4.68233 12.7471 4.68143 12.8358C4.68052 12.9245 4.69741 13.0125 4.73111 13.0946C4.76481 13.1767 4.81465 13.2513 4.8777 13.3141C4.94074 13.3768 5.01574 13.4263 5.09829 13.4599C5.18083 13.4934 5.26928 13.5102 5.35844 13.5093C5.44759 13.5084 5.53567 13.4898 5.61752 13.4546C5.69937 13.4194 5.77333 13.3683 5.83508 13.3044L12.5367 6.6377C12.6335 6.54405 12.6996 6.42349 12.7264 6.29181C12.7532 6.16013 12.7394 6.02348 12.6867 5.89975C12.6341 5.77603 12.5451 5.67101 12.4314 5.59846C12.3178 5.5259 12.1847 5.4892 12.0497 5.49316C11.8756 5.49832 11.7104 5.57071 11.589 5.69499L9.76048 7.514C9.15653 6.49192 9.2865 5.15682 10.1675 4.28092L11.5079 2.94759C12.0306 2.42759 12.7162 2.16895 13.4031 2.16895C14.0901 2.16895 14.7757 2.42826 15.2984 2.94759C16.3439 3.98759 16.3439 5.67909 15.2984 6.71842L13.9581 8.05176C13.4689 8.53842 12.8351 8.78932 12.1924 8.81999L10.9869 10.0192C11.3334 10.1139 11.6936 10.1663 12.0628 10.1663C13.1371 10.1663 14.1458 9.7498 14.9058 8.99447L16.2461 7.66113C17.0054 6.90513 17.4241 5.90167 17.4241 4.83301C17.4241 3.76434 17.0054 2.76088 16.2461 2.00488C15.4861 1.24955 14.4774 0.833008 13.4031 0.833008Z" fill="#6B6B6B"/>
</svg>
