<svg width="20" height="20" viewBox="0 0 20 20" fill="none" xmlns="http://www.w3.org/2000/svg">
<path d="M9.99996 1.33301C5.94996 1.33301 2.66663 4.61634 2.66663 8.66634C2.66663 13.489 7.43463 15.7977 8.03196 16.335C8.64196 16.8837 9.14596 18.1137 9.34929 18.811C9.44796 19.1497 9.72529 19.321 9.99996 19.3283C10.2753 19.3203 10.552 19.149 10.6506 18.811C10.854 18.1137 11.358 16.8843 11.968 16.335C12.5653 15.7977 17.3333 13.489 17.3333 8.66634C17.3333 4.61634 14.05 1.33301 9.99996 1.33301ZM9.99996 10.6663C8.89529 10.6663 7.99996 9.77101 7.99996 8.66634C7.99996 7.56167 8.89529 6.66634 9.99996 6.66634C11.1046 6.66634 12 7.56167 12 8.66634C12 9.77101 11.1046 10.6663 9.99996 10.6663Z" fill="#808080"/>
</svg>
