<svg width="20" height="16" viewBox="0 0 20 16" fill="none" xmlns="http://www.w3.org/2000/svg">
<path d="M4.40104 0C3.79171 0 3.33333 0.666667 3.33333 0.666667C-0.156667 0.666667 1.76882 6.23726 0.74349 7.05859C0.74349 7.05859 1.372 7.83594 3.33333 7.83594V8.5013C2.79133 9.9133 0 9.39133 0 12H5.34896C5.81829 11.716 7.33333 10.9284 7.33333 10.9284C6.97133 10.5417 6.44911 9.87319 6.25911 9.36719C5.84311 9.15852 5.49133 8.9133 5.33333 8.5013V7.82813C5.46 7.82813 5.83351 7.79886 5.96484 7.76953C5.66751 7.31153 5.41667 6.26763 5.41667 5.68229C5.41667 4.19363 6.05776 2.96916 7.12109 2.20182C6.80043 0.97449 6.08838 0 4.40104 0ZM15.3333 0C13.8513 0 12.9414 1.01947 12.7214 2.35547C13.7987 2.9328 14.5 4.17746 14.5 5.74479C14.5 6.23479 14.3857 6.70628 14.2617 7.07161C14.3077 7.25228 14.3333 7.45375 14.3333 7.67708C14.3333 9.32375 12.6667 10.9661 12.6667 10.9661C13.0287 11.1241 14.1868 11.7127 14.6602 12H20C20 8.5 17.158 9.5 16.6667 8V7C16.888 6.88867 17.4151 6.1221 17.4818 5.52344C17.6551 5.5101 18 5.08636 18 4.70703C18 4.3277 17.8794 4.1681 17.7747 4.10677C17.7747 4.10677 18 3.606 18 3C18 1.786 17.672 0.666667 16.6667 0.666667C16.6667 0.666667 16.378 0 15.3333 0ZM10 2.66667C8.20533 2.66667 6.75 3.74763 6.75 5.68229C6.75 6.50029 7.20833 7.13802 7.20833 7.13802C7.20833 7.13802 7 7.24042 7 7.67708C7 8.52575 7.54557 8.72917 7.54557 8.72917C7.62157 9.40117 8.66667 10.3854 8.66667 10.3854V11.5091C8.10533 13.1931 4.66667 12.0833 4.66667 16H15.3333C15.3333 12.07 11.8947 13.1931 11.3333 11.5091V10.3854C11.3333 10.3854 12.3784 9.40117 12.4544 8.72917C12.4544 8.72917 13 8.35242 13 7.67708C13 7.20908 12.7917 7.13802 12.7917 7.13802C12.7917 7.13802 13.1667 6.42479 13.1667 5.74479C13.1667 4.38146 12.4827 3.33333 11.3333 3.33333C11.3333 3.33333 10.8453 2.66667 10 2.66667Z" fill="#808080"/>
</svg>
