<svg width="18" height="16" viewBox="0 0 18 16" fill="none" xmlns="http://www.w3.org/2000/svg">
<path d="M17.334 2.62436C16.696 2.9077 16.0107 3.09836 15.2913 3.18436C16.026 2.74436 16.5893 2.0477 16.8547 1.21703C16.168 1.62436 15.4067 1.92036 14.596 2.08036C13.9473 1.38903 13.0233 0.957031 12.0007 0.957031C10.0367 0.957031 8.44467 2.5497 8.44467 4.51303C8.44467 4.7917 8.47667 5.0637 8.53667 5.32303C5.58133 5.17503 2.96133 3.75903 1.20667 1.60703C0.901333 2.13236 0.726 2.74303 0.726 3.3957C0.726 4.62903 1.35333 5.7177 2.30733 6.35503C1.72467 6.33636 1.176 6.17636 0.696667 5.91036C0.696667 5.9257 0.696667 5.9397 0.696667 5.95503C0.696667 7.67836 1.922 9.1157 3.54933 9.4417C3.25133 9.52303 2.93667 9.56636 2.612 9.56636C2.38333 9.56636 2.16 9.5437 1.94333 9.50303C2.396 10.9157 3.70933 11.9444 5.26533 11.973C4.04867 12.927 2.51533 13.4957 0.848667 13.4957C0.562 13.4957 0.278667 13.479 0 13.4457C1.574 14.4544 3.44267 15.043 5.45133 15.043C11.9927 15.043 15.5687 9.62436 15.5687 4.92503C15.5687 4.77103 15.5653 4.6177 15.5587 4.46503C16.254 3.96303 16.8573 3.33703 17.334 2.62436Z" fill="#3191E7"/>
</svg>
