<svg width="23" height="18" viewBox="0 0 23 18" fill="none" xmlns="http://www.w3.org/2000/svg">
<path d="M22.5 2.17718C21.6903 2.53679 20.8204 2.77878 19.9075 2.88793C20.8399 2.32949 21.5549 1.44529 21.8916 0.391023C21.0201 0.908003 20.0539 1.28368 19.025 1.48675C18.2017 0.609322 17.029 0.0610352 15.731 0.0610352C13.2384 0.0610352 11.2178 2.08242 11.2178 4.57425C11.2178 4.92793 11.2584 5.27314 11.3346 5.60228C7.58373 5.41444 4.25847 3.61728 2.03148 0.886003C1.64396 1.55275 1.42143 2.32779 1.42143 3.15615C1.42143 4.72147 2.21763 6.10319 3.42843 6.91208C2.68892 6.88839 1.99256 6.68532 1.3842 6.34772C1.3842 6.36718 1.3842 6.38495 1.3842 6.40441C1.3842 8.59163 2.93937 10.4159 5.00475 10.8296C4.62653 10.9328 4.22716 10.9878 3.8151 10.9878C3.52488 10.9878 3.24143 10.9591 2.96644 10.9075C3.54096 12.7004 5.20782 14.006 7.18267 14.0423C5.63849 15.2531 3.69242 15.9749 1.57711 15.9749C1.21328 15.9749 0.853679 15.9537 0.5 15.9114C2.49769 17.1916 4.86937 17.9387 7.41873 17.9387C15.7209 17.9387 20.2595 11.0615 20.2595 5.09715C20.2595 4.90169 20.2552 4.70709 20.2468 4.51333C21.1293 3.8762 21.895 3.08169 22.5 2.17718Z" fill="white"/>
</svg>
